<?xml version="1.0" encoding="UTF-8" standalone="no"?>
<svg xmlns:dc="http://purl.org/dc/elements/1.1/" xmlns:cc="http://web.resource.org/cc/" xmlns:rdf="http://www.w3.org/1999/02/22-rdf-syntax-ns#" xmlns:svg="http://www.w3.org/2000/svg" xmlns="http://www.w3.org/2000/svg" xmlns:sodipodi="http://sodipodi.sourceforge.net/DTD/sodipodi-0.dtd" xmlns:inkscape="http://www.inkscape.org/namespaces/inkscape" preserveAspectRatio="xMinYMin meet" viewBox="0 0 650 500" id="svg2" sodipodi:version="0.32" inkscape:version="0.44.1" sodipodi:docbase="/home/cburnett/images/wikipedia" sodipodi:docname="Baseball_diamond_clean.svg" version="1.0">
  <g id="layer1">
    <path id="background" style="fill:#00a831;fill-opacity:1;fill-rule:evenodd;stroke:none;stroke-width:1px;stroke-linecap:butt;stroke-linejoin:miter;stroke-opacity:1" d="M 150,500 L 0,500 L 0,0 L 650,0 L 650,500 L 508,500 L 150,500 z " sodipodi:nodetypes="ccccccc"/>
    <path id="dirt" sodipodi:type="arc" style="opacity:1;fill:#a48e28;fill-opacity:1;stroke:#85881b;stroke-width:1.04379344;stroke-linecap:butt;stroke-linejoin:bevel;stroke-miterlimit:4;stroke-dasharray:none;stroke-opacity:1" sodipodi:cx="300" sodipodi:cy="752.36218" sodipodi:rx="95" sodipodi:ry="95" d="M 205,752.36218 A 95,95 0 0 1 395,752.36218" sodipodi:start="3.1415927" sodipodi:end="6.2831853" sodipodi:open="true" transform="matrix(1.989102,0,0,1.978205,-268.2308,-1169.879)"/>
    <path id="dirt-corner-right" style="fill:#00a831;fill-opacity:1;fill-rule:evenodd;stroke:none;stroke-width:1px;stroke-linecap:butt;stroke-linejoin:miter;stroke-opacity:1" d="M 328.5,439.48263 L 538.5,229.48266 L 538.5,439.48263 L 328.5,439.48263 z "/>
    <path id="dirt-corner-left" style="fill:#00a831;fill-opacity:1;fill-rule:evenodd;stroke:none;stroke-width:1px;stroke-linecap:butt;stroke-linejoin:miter;stroke-opacity:1" d="M 328.5,439.48263 L 124.5,235.48266 L 123.5,439.48263 L 328.5,439.48263 z "/>
    <rect id="diamond-grass" style="opacity:1;fill:#00a837;fill-opacity:1;stroke:#85881b;stroke-width:4.99999857;stroke-linecap:butt;stroke-linejoin:miter;stroke-miterlimit:4;stroke-dasharray:none;stroke-opacity:1" width="168.31494" height="168.31494" x="-77.781464" y="374.03622" transform="matrix(0.707107,-0.707107,0.707107,0.707107,0,0)"/>
    <path id="dirt-home" sodipodi:type="arc" style="opacity:1;fill:#85881b;fill-opacity:1;stroke:none;stroke-width:1;stroke-linecap:butt;stroke-linejoin:miter;stroke-miterlimit:4;stroke-dasharray:none;stroke-opacity:1" sodipodi:cx="328" sodipodi:cy="430" sodipodi:rx="43" sodipodi:ry="43" d="M 371 430 A 43 43 0 1 1  285,430 A 43 43 0 1 1  371 430 z"/>
    <path id="pitchers-mound" sodipodi:type="arc" style="opacity:1;fill:#b56700;fill-opacity:1;stroke:#85881b;stroke-width:2;stroke-linecap:round;stroke-linejoin:round;stroke-miterlimit:4;stroke-dasharray:none;stroke-opacity:1" sodipodi:cx="300" sodipodi:cy="752.36218" sodipodi:rx="18" sodipodi:ry="18" d="M 318 752.36218 A 18 18 0 1 1  282,752.36218 A 18 18 0 1 1  318 752.36218 z" transform="translate(28.5,-432.8794)"/>
    <rect id="pitchers-plate" style="opacity:1;fill:white;fill-opacity:1;stroke:none;stroke-width:3;stroke-linecap:butt;stroke-linejoin:miter;stroke-miterlimit:4;stroke-dasharray:none;stroke-opacity:1" width="14" height="4" x="321.5" y="317.4827"/>
    <path id="foul-line-right" style="fill:none;fill-opacity:0.75;fill-rule:evenodd;stroke:white;stroke-width:3.01047993;stroke-linecap:square;stroke-linejoin:miter;stroke-miterlimit:4;stroke-dasharray:none;stroke-opacity:1" d="M 363.00993,405 C 650.37706,117.62236 650.37706,117.62236 650.37706,117.62236"/>
    <path id="foul-line-left" style="fill:none;fill-opacity:0.75;fill-rule:evenodd;stroke:white;stroke-width:3;stroke-linecap:butt;stroke-linejoin:miter;stroke-miterlimit:4;stroke-dasharray:none;stroke-opacity:1" d="M 293.77042,404.99993 C -2.1085256,109.12113 -2.1085256,109.12113 -2.1085256,109.12113"/>
    <rect id="base-1" style="opacity:1;fill:white;fill-opacity:1;stroke:none;stroke-width:3;stroke-linecap:butt;stroke-linejoin:miter;stroke-miterlimit:4;stroke-dasharray:none;stroke-opacity:1" width="10.242652" height="10.242652" x="531.56042" y="-95.300102" transform="matrix(0.707107,0.707107,-0.707107,0.707107,0,0)"/>
    <rect id="base-2" style="opacity:1;fill:white;fill-opacity:1;stroke:none;stroke-width:3;stroke-linecap:butt;stroke-linejoin:miter;stroke-miterlimit:4;stroke-dasharray:none;stroke-opacity:1" width="10.242655" height="10.242655" x="369.26904" y="-95.643242" transform="matrix(0.707107,0.707107,-0.707107,0.707107,0,0)"/>
    <rect id="base-3" style="opacity:1;fill:white;fill-opacity:1;stroke:none;stroke-width:3;stroke-linecap:butt;stroke-linejoin:miter;stroke-miterlimit:4;stroke-dasharray:none;stroke-opacity:1" width="10.242649" height="10.242649" x="369.26904" y="66.99128" transform="matrix(0.707107,0.707107,-0.707107,0.707107,0,0)"/>
    <path id="base-home" style="fill:white;fill-opacity:1;stroke:none;stroke-width:3;stroke-linecap:butt;stroke-linejoin:miter;stroke-miterlimit:4;stroke-opacity:1" d="M 320,423 L 335,423 L 335,430.7492 L 327.72761,438 L 320,429.78055 L 320,423 z " sodipodi:nodetypes="cccccc"/>
    <rect id="batters-box-right" style="opacity:1;fill:#85881b;fill-opacity:1;stroke:white;stroke-width:1;stroke-linecap:butt;stroke-linejoin:miter;stroke-miterlimit:4;stroke-dasharray:none;stroke-opacity:1" width="15" height="35" x="340" y="410"/>
    <rect id="batters-box-left" style="opacity:1;fill:#85881b;fill-opacity:1;stroke:white;stroke-width:1;stroke-linecap:butt;stroke-linejoin:miter;stroke-miterlimit:4;stroke-dasharray:none;stroke-opacity:1" width="15" height="35" x="300" y="410"/>
    <!--
    <rect id="catchers-box" style="opacity:1;fill:#85881b;fill-opacity:1;stroke:white;stroke-width:1;stroke-linecap:butt;stroke-linejoin:miter;stroke-miterlimit:4;stroke-dasharray:none;stroke-opacity:1" width="15.150455" height="25.009609" x="319.92477" y="442.5"/>
    <rect id="coaches-box-right" style="opacity:1;fill:#00a83b;fill-opacity:1;stroke:white;stroke-width:1.00000215;stroke-linecap:butt;stroke-linejoin:miter;stroke-miterlimit:4;stroke-dasharray:none;stroke-opacity:1" width="10.000017" height="25.000046" x="-574.22095" y="78.894386" transform="matrix(-0.707107,-0.707107,0.707107,-0.707107,0,0)"/>
    <rect id="coaches-box-left" style="opacity:1;fill:#00a83b;fill-opacity:1;stroke:white;stroke-width:1.00000036;stroke-linecap:butt;stroke-linejoin:miter;stroke-miterlimit:4;stroke-dasharray:none;stroke-opacity:1" width="10.000003" height="25.000008" x="-109.12236" y="360.85239" transform="matrix(0.707107,-0.707107,0.707107,0.707107,0,0)"/>
    <path id="on-deck-left" sodipodi:type="arc" style="opacity:1;fill:#00a83b;fill-opacity:1;stroke:white;stroke-width:1;stroke-linecap:butt;stroke-linejoin:miter;stroke-miterlimit:4;stroke-dasharray:none;stroke-opacity:1" sodipodi:cx="222.5" sodipodi:cy="457.5" sodipodi:rx="12.5" sodipodi:ry="12.5" d="M 235 457.5 A 12.5 12.5 0 1 1  210,457.5 A 12.5 12.5 0 1 1  235 457.5 z"/>
    <path id="on-deck-right" sodipodi:type="arc" style="opacity:1;fill:#00a83b;fill-opacity:1;stroke:white;stroke-width:1;stroke-linecap:butt;stroke-linejoin:miter;stroke-miterlimit:4;stroke-dasharray:none;stroke-opacity:1" sodipodi:cx="222.5" sodipodi:cy="457.5" sodipodi:rx="12.5" sodipodi:ry="12.5" d="M 235 457.5 A 12.5 12.5 0 1 1  210,457.5 A 12.5 12.5 0 1 1  235 457.5 z" transform="translate(209.5,0.5)"/>
    -->
    <path id="border-home" style="opacity:1;fill:white;fill-opacity:1;stroke:none;stroke-width:3;stroke-linecap:butt;stroke-linejoin:miter;stroke-miterlimit:4;stroke-dasharray:none;stroke-opacity:1" d="M 295,405 C 295.15103,402.74278 293.1875,403.97917 292.28125,403.46875 C 280.62645,419.16193 280.35712,439.683 291.625,455.65625 C 305.77503,475.71519 333.59731,480.52502 353.65625,466.375 C 373.71519,452.22497 378.52502,424.40269 364.375,404.34375 L 361,405 C 362.65625,407.375 361,405 362.65625,407.375 L 293.875,406.53125 L 295,405 z M 293.875,406.53125 L 362.65625,407.375 C 374.80016,425.99135 370.24983,450.98832 351.9375,463.90625 C 333.20494,477.12061 307.30812,472.67006 294.09375,453.9375 C 283.82751,439.38417 283.83997,421.05606 293.875,406.53125 z " sodipodi:nodetypes="ccsscccccccssc"/>
  </g>
</svg>